<?xml version="1.0" encoding="utf-8"?>
<!-- Generator: Adobe Illustrator 16.0.0, SVG Export Plug-In . SVG Version: 6.00 Build 0)  -->
<!DOCTYPE svg PUBLIC "-//W3C//DTD SVG 1.1//EN" "http://www.w3.org/Graphics/SVG/1.1/DTD/svg11.dtd">
<svg version="1.1" id="Layer_1" xmlns="http://www.w3.org/2000/svg" xmlns:xlink="http://www.w3.org/1999/xlink" x="0px" y="0px"
	 width="100px" height="100px" viewBox="0 0 100 100" enable-background="new 0 0 100 100" xml:space="preserve">
<g id="Your_Icon">
	<g>
		<path d="M87.925,12.075C81.466,5.619,72.884,2.063,63.751,2.063c-9.129,0-17.714,3.554-24.17,10.01
			c-6.455,6.455-10.013,15.041-10.009,24.173c0,5.401,1.27,10.598,3.623,15.29L5.22,79.511c-4.212,4.22-4.212,11.052,0,15.271
			c2.109,2.103,4.87,3.155,7.638,3.155c2.761,0,5.522-1.055,7.632-3.155l27.972-27.978c4.695,2.354,9.889,3.625,15.293,3.627
			c9.133,0,17.715-3.557,24.174-10.013c6.455-6.455,10.01-15.041,10.01-24.174C97.937,27.116,94.38,18.531,87.925,12.075z
			 M63.755,56.039c-5.283,0-10.256-2.063-13.996-5.801c-3.735-3.738-5.794-8.706-5.794-13.993
			c-0.004-5.286,2.057-10.254,5.794-13.992c3.738-3.737,8.705-5.794,13.992-5.794s10.258,2.057,13.996,5.794
			c3.738,3.738,5.795,8.709,5.795,13.996c0.002,5.287-2.057,10.255-5.791,13.993C74.009,53.979,69.042,56.039,63.755,56.039z"/>
	</g>
</g>
</svg>
